<svg id="Calque_1" data-name="Calque 1" xmlns="http://www.w3.org/2000/svg" viewBox="0 0 1874.42 900.92"><defs><style>.cls-1{fill:#fff;}.cls-2{fill:#f68511;}</style></defs><path class="cls-1" d="M-1332.89,3006.86h-394.22a30,30,0,0,1-29-22.19L-1836,2688a30,30,0,0,0-29-22.2h-58.2a60,60,0,0,1,60-60H-1819a30,30,0,0,1,29,22.2l80,296.72a30,30,0,0,0,29,22.19h301a30,30,0,0,0,29.16-22.94l32.18-133a30,30,0,0,0-29.27-37l-176.36.64a30,30,0,0,1-30.11-29.89h0a30,30,0,0,1,29.89-30.11l252.89-.91a30,30,0,0,1,29.27,37l-61.27,253.28A30,30,0,0,1-1332.89,3006.86Z" transform="translate(1923.19 -2570.91)"/><circle class="cls-2" cx="297.28" cy="539.94" r="56.72"/><path class="cls-2" d="M263.08,259.82H371.21a4.15,4.15,0,0,1,4.15,4.15V376.24a0,0,0,0,1,0,0H258.94a0,0,0,0,1,0,0V264A4.15,4.15,0,0,1,263.08,259.82Z"/><path class="cls-1" d="M-1546.83,2948.16h-118.43V2834.88a5.16,5.16,0,0,1,5.15-5.15H-1552a5.16,5.16,0,0,1,5.15,5.15Zm-116.43-2h114.43V2834.88a3.16,3.16,0,0,0-3.15-3.15h-108.13a3.16,3.16,0,0,0-3.15,3.15Z" transform="translate(1923.19 -2570.91)"/><path class="cls-2" d="M375.36,288.93h83a4.28,4.28,0,0,1,4.28,4.28v83a0,0,0,0,1,0,0H375.36a0,0,0,0,1,0,0V288.93a0,0,0,0,1,0,0Z"/><path class="cls-1" d="M-1459.51,2948.16h-89.32v-89.32h84a5.29,5.29,0,0,1,5.28,5.28Zm-87.32-2h85.32v-82a3.28,3.28,0,0,0-3.28-3.28h-82Z" transform="translate(1923.19 -2570.91)"/><circle class="cls-2" cx="480.68" cy="539.94" r="56.72"/><path class="cls-1" d="M-1179.88,2947.43h0a1.55,1.55,0,0,0,1.59,1.55l62.83-1.74h93.77a1.55,1.55,0,0,0,1.55-1.55V2812.92a1.55,1.55,0,0,1,1.55-1.55h0a65.92,65.92,0,0,1,65.92,65.92v68.4a1.56,1.56,0,0,0,1.55,1.55h82.65a1.54,1.54,0,0,1,1.55,1.55v56.34a1.55,1.55,0,0,1-1.55,1.55h-82.65a1.55,1.55,0,0,0-1.55,1.55v155.56a1.54,1.54,0,0,1-1.55,1.55h0a65.92,65.92,0,0,1-65.92-65.92v-91.19a1.54,1.54,0,0,0-1.55-1.55h-233.68a1.55,1.55,0,0,1-1.55-1.55v-49.2a1.23,1.23,0,0,1,.05-.39l97.14-372.29a1.56,1.56,0,0,1,1.5-1.16h0a55.54,55.54,0,0,1,53.82,69.27l-75.42,295.69A1.58,1.58,0,0,0-1179.88,2947.43Z" transform="translate(1923.19 -2570.91)"/><path class="cls-1" d="M-473.72,2794.83q0,47.39-12.84,88.27t-37.22,70.84a173,173,0,0,1-59.41,46.93q-35,17-79.87,17-46.16,0-81.62-17a169.74,169.74,0,0,1-59.63-46.93q-24.15-29.94-36.56-70.84t-12.41-88.27q0-47.82,12.84-88.72t37.22-71.06a171.35,171.35,0,0,1,59.63-47.15q35.26-17,80.09-17,45.71,0,81.18,17a168.66,168.66,0,0,1,59.63,47.15q24.17,30.16,36.56,71.06T-473.72,2794.83Zm-70.52,0q0-38.43-8.48-69t-23.94-51.84a107,107,0,0,0-37.44-32.63q-22-11.4-49.4-11.4t-49.4,11.4a108.68,108.68,0,0,0-37.65,32.63q-15.68,21.22-23.94,51.84t-8.27,69q0,38,8.49,68.61t23.93,51.62a107.1,107.1,0,0,0,37.66,32.4q22.18,11.4,49.62,11.39t49.4-11.39a107.71,107.71,0,0,0,37.43-32.4q15.45-21,23.72-51.62T-544.24,2794.83Z" transform="translate(1923.19 -2570.91)"/><path class="cls-1" d="M-361.73,2947.24V2949l64.42-1.78H-202V2811.37h0a67.46,67.46,0,0,1,67.46,67.47v68.4h85.75v59.44h-85.75v158.66h0A67.47,67.47,0,0,1-202,3097.87v-91.19H-438.77v-50.95l79.14-303.31a94.1,94.1,0,0,1,91-70.33h0Z" transform="translate(1923.19 -2570.91)"/><path class="cls-1" d="M-1634.7,3426.59h-20.65v31.51q0,6.75-3.19,10.25a10.47,10.47,0,0,1-8,3.49,10.48,10.48,0,0,1-8.2-3.46q-3.12-3.45-3.11-10.13v-85.8q0-7.44,3.41-10.63t10.86-3.19h28.93q12.83,0,19.74,2a29.35,29.35,0,0,1,11.81,6.3,28.42,28.42,0,0,1,7.55,10.78A38,38,0,0,1-1593,3392q0,17-10.48,25.78T-1634.7,3426.59Zm-5.47-51h-15.18v34h15.18a45.5,45.5,0,0,0,13.33-1.67,15.5,15.5,0,0,0,8.16-5.47q2.81-3.8,2.81-9.94,0-7.36-4.33-12Q-1625.06,3375.57-1640.17,3375.56Z" transform="translate(1923.19 -2570.91)"/><path class="cls-1" d="M-1516.64,3457.34l-5.31-14h-45.25l-5.32,14.27c-2.07,5.57-3.85,9.33-5.31,11.28s-3.87,2.92-7.22,2.92a10.58,10.58,0,0,1-7.51-3.11,9.53,9.53,0,0,1-3.27-7.06,16,16,0,0,1,.76-4.71c.51-1.62,1.34-3.87,2.51-6.76l28.47-72.28q1.21-3.12,2.92-7.48a37.81,37.81,0,0,1,3.65-7.25,14.67,14.67,0,0,1,5.09-4.67,15.54,15.54,0,0,1,7.78-1.79,15.76,15.76,0,0,1,7.86,1.79,15.11,15.11,0,0,1,5.08,4.59,32.83,32.83,0,0,1,3.27,6q1.32,3.22,3.38,8.62l29.08,71.82q3.4,8.2,3.41,11.92a9.87,9.87,0,0,1-3.22,7.1,10.64,10.64,0,0,1-7.79,3.23,10.09,10.09,0,0,1-4.55-1,9.23,9.23,0,0,1-3.19-2.58,24,24,0,0,1-2.77-5Q-1515.57,3459.93-1516.64,3457.34Zm-44.64-30.9H-1528l-16.78-45.94Z" transform="translate(1923.19 -2570.91)"/><path class="cls-1" d="M-1378.22,3424.69V3446a22.33,22.33,0,0,1-.84,6.8,10.65,10.65,0,0,1-3.07,4.59,28.72,28.72,0,0,1-5.73,4,89.94,89.94,0,0,1-19.44,8,78.4,78.4,0,0,1-20.35,2.51,66.3,66.3,0,0,1-23.38-4,49.15,49.15,0,0,1-18-11.46,50.66,50.66,0,0,1-11.43-18.23,68.25,68.25,0,0,1-4-23.91,69.93,69.93,0,0,1,3.87-23.77,48.76,48.76,0,0,1,11.39-18.3,50,50,0,0,1,18.3-11.5,70.09,70.09,0,0,1,24.45-4,60.62,60.62,0,0,1,19.89,3,43.82,43.82,0,0,1,14,7.56,33.74,33.74,0,0,1,8.12,9.64,19.59,19.59,0,0,1,2.73,9,9.65,9.65,0,0,1-3.15,7.25,10.57,10.57,0,0,1-7.55,3,10.16,10.16,0,0,1-4.67-1.14,10.61,10.61,0,0,1-3.76-3.19,90.31,90.31,0,0,0-7.06-9.87,22.87,22.87,0,0,0-7.78-5.62,29.69,29.69,0,0,0-12.49-2.28,34.4,34.4,0,0,0-14,2.7,28.76,28.76,0,0,0-10.52,7.82,35.13,35.13,0,0,0-6.68,12.56,55.15,55.15,0,0,0-2.32,16.48q0,19.59,9,30.14t25.09,10.56a51.45,51.45,0,0,0,14.7-2.05,74.79,74.79,0,0,0,13.93-5.85v-18.07h-17.47q-6.3,0-9.52-1.9c-2.16-1.26-3.23-3.42-3.23-6.45a7.94,7.94,0,0,1,2.69-6.15,10.55,10.55,0,0,1,7.33-2.43h25.59a33,33,0,0,1,8,.83,9,9,0,0,1,5.28,3.72C-1378.89,3418-1378.22,3420.84-1378.22,3424.69Z" transform="translate(1923.19 -2570.91)"/><path class="cls-1" d="M-1283.39,3376h-50.79v27.33h46.77c3.44,0,6,.78,7.71,2.32a7.88,7.88,0,0,1,2.54,6.11,8.18,8.18,0,0,1-2.51,6.19q-2.5,2.39-7.74,2.39h-46.77V3452h52.54c3.54,0,6.21.83,8,2.47a8.47,8.47,0,0,1,2.7,6.57,8.27,8.27,0,0,1-2.7,6.41q-2.7,2.47-8,2.47h-61.27q-7.36,0-10.6-3.26t-3.22-10.56v-83.67a18.77,18.77,0,0,1,1.44-7.93,8.93,8.93,0,0,1,4.52-4.48,18.93,18.93,0,0,1,7.86-1.41h59.52q5.4,0,8,2.39a8.09,8.09,0,0,1,2.62,6.27,8.17,8.17,0,0,1-2.62,6.34Q-1278,3376-1283.39,3376Z" transform="translate(1923.19 -2570.91)"/><path class="cls-1" d="M-1184.76,3370.25l43.36,65.6v-66.21q0-6.45,2.77-9.68a9.35,9.35,0,0,1,7.48-3.23,9.66,9.66,0,0,1,7.67,3.23q2.81,3.23,2.8,9.68v87.55q0,14.66-12.14,14.65a16.14,16.14,0,0,1-5.47-.87,14.15,14.15,0,0,1-4.56-2.77,27.15,27.15,0,0,1-3.94-4.45c-1.22-1.69-2.43-3.42-3.65-5.2l-42.29-64.84v65.22q0,6.38-3,9.65a9.82,9.82,0,0,1-7.59,3.26,9.68,9.68,0,0,1-7.67-3.3q-2.9-3.32-2.89-9.61v-85.87a24.25,24.25,0,0,1,1.22-8.58,12.19,12.19,0,0,1,4.78-5.58,13,13,0,0,1,7.21-2.17,12.4,12.4,0,0,1,5.2,1,12.58,12.58,0,0,1,3.8,2.66,27.33,27.33,0,0,1,3.34,4.33Q-1186.58,3367.37-1184.76,3370.25Z" transform="translate(1923.19 -2570.91)"/><path class="cls-1" d="M-1047,3356.73q17.31,0,29.73,7a45.48,45.48,0,0,1,18.79,20q6.38,12.95,6.38,30.4a74.67,74.67,0,0,1-3.49,23.47,50.73,50.73,0,0,1-10.48,18.29,45.72,45.72,0,0,1-17.16,11.85,62,62,0,0,1-23.31,4.1,61.64,61.64,0,0,1-23.39-4.21,46.29,46.29,0,0,1-17.23-11.89,50.61,50.61,0,0,1-10.44-18.45,74.28,74.28,0,0,1-3.53-23.31,71.77,71.77,0,0,1,3.68-23.53,50.52,50.52,0,0,1,10.67-18.23,46.06,46.06,0,0,1,17-11.5A61.15,61.15,0,0,1-1047,3356.73Zm32,57.25q0-12.22-3.95-21.18a29.5,29.5,0,0,0-11.28-13.55,30.92,30.92,0,0,0-16.82-4.6,30.43,30.43,0,0,0-12.49,2.55,27.39,27.39,0,0,0-9.87,7.4,35.48,35.48,0,0,0-6.53,12.41,56.29,56.29,0,0,0-2.39,17,57.63,57.63,0,0,0,2.39,17.16,35.17,35.17,0,0,0,6.76,12.72,28.35,28.35,0,0,0,10,7.56,30.32,30.32,0,0,0,12.42,2.5,30.39,30.39,0,0,0,15.9-4.33q7.26-4.32,11.55-13.36T-1015,3414Z" transform="translate(1923.19 -2570.91)"/><path class="cls-1" d="M-906.48,3377.23h-24.61v80.87q0,7-3.11,10.36a10.45,10.45,0,0,1-8,3.38,10.59,10.59,0,0,1-8.16-3.42c-2.1-2.27-3.15-5.72-3.15-10.32v-80.87h-24.6c-3.85,0-6.71-.84-8.58-2.54a8.62,8.62,0,0,1-2.81-6.72,8.52,8.52,0,0,1,2.92-6.83q2.93-2.51,8.47-2.51h71.68q5.84,0,8.69,2.58a8.71,8.71,0,0,1,2.85,6.76,8.52,8.52,0,0,1-2.89,6.72C-899.75,3376.39-902.64,3377.23-906.48,3377.23Z" transform="translate(1923.19 -2570.91)"/><path class="cls-1" d="M-776.19,3376h-44.42v28.47h37.13q5.16,0,7.7,2.32a7.94,7.94,0,0,1,2.55,6.19,7.79,7.79,0,0,1-2.58,6.15c-1.73,1.52-4.28,2.27-7.67,2.27h-37.13v36.68q0,7-3.15,10.36a10.58,10.58,0,0,1-8.09,3.38,10.59,10.59,0,0,1-8.16-3.42c-2.1-2.27-3.15-5.72-3.15-10.32v-85.65a18.77,18.77,0,0,1,1.44-7.93,8.93,8.93,0,0,1,4.52-4.48,18.93,18.93,0,0,1,7.86-1.41h53.15q5.38,0,8,2.39a8.13,8.13,0,0,1,2.62,6.27,8.21,8.21,0,0,1-2.62,6.34Q-770.8,3376-776.19,3376Z" transform="translate(1923.19 -2570.91)"/><path class="cls-1" d="M-699.81,3356.73q17.31,0,29.72,7a45.56,45.56,0,0,1,18.8,20q6.38,12.95,6.37,30.4a74.38,74.38,0,0,1-3.49,23.47,50.73,50.73,0,0,1-10.48,18.29A45.56,45.56,0,0,1-676,3467.74a62,62,0,0,1-23.31,4.1,61.59,61.59,0,0,1-23.38-4.21A46.32,46.32,0,0,1-740,3455.74a50.9,50.9,0,0,1-10.44-18.45,74.57,74.57,0,0,1-3.53-23.31,72,72,0,0,1,3.68-23.53,50.52,50.52,0,0,1,10.67-18.23,46.22,46.22,0,0,1,17-11.5A61.16,61.16,0,0,1-699.81,3356.73Zm32,57.25q0-12.22-4-21.18A29.48,29.48,0,0,0-683,3379.25a30.94,30.94,0,0,0-16.82-4.6,30.36,30.36,0,0,0-12.49,2.55,27.39,27.39,0,0,0-9.87,7.4A35.32,35.32,0,0,0-728.7,3397a56,56,0,0,0-2.39,17,57.3,57.3,0,0,0,2.39,17.16,34.87,34.87,0,0,0,6.76,12.72,28.35,28.35,0,0,0,10,7.56,30.31,30.31,0,0,0,12.41,2.5,30.45,30.45,0,0,0,15.91-4.33q7.25-4.32,11.54-13.36T-667.77,3414Z" transform="translate(1923.19 -2570.91)"/><path class="cls-1" d="M-625.48,3423.93V3370.4q0-6.83,3.08-10.25a10.34,10.34,0,0,1,8.08-3.42,10.64,10.64,0,0,1,8.32,3.42q3.07,3.42,3.07,10.25v54.74a50,50,0,0,0,2.09,15.61,18.06,18.06,0,0,0,7.4,9.72q5.31,3.45,14.88,3.45,13.21,0,18.68-7t5.47-21.3v-55.2q0-6.9,3-10.29a10.38,10.38,0,0,1,8.12-3.38,10.76,10.76,0,0,1,8.24,3.38q3.15,3.39,3.15,10.29v53.53q0,13.07-2.54,21.79a33.71,33.71,0,0,1-9.61,15.34,37.41,37.41,0,0,1-14.12,8.2,61.84,61.84,0,0,1-18.83,2.58,77.58,77.58,0,0,1-22.1-2.77,35.46,35.46,0,0,1-15.11-8.58,34.72,34.72,0,0,1-8.58-14.88A75.82,75.82,0,0,1-625.48,3423.93Z" transform="translate(1923.19 -2570.91)"/><path class="cls-1" d="M-478.1,3370.25l43.35,65.6v-66.21q0-6.45,2.77-9.68a9.36,9.36,0,0,1,7.48-3.23,9.65,9.65,0,0,1,7.67,3.23q2.81,3.23,2.81,9.68v87.55q0,14.66-12.15,14.65a16.14,16.14,0,0,1-5.47-.87,14,14,0,0,1-4.55-2.77,26.74,26.74,0,0,1-3.95-4.45c-1.22-1.69-2.43-3.42-3.65-5.2l-42.29-64.84v65.22q0,6.38-3,9.65a9.79,9.79,0,0,1-7.59,3.26,9.68,9.68,0,0,1-7.67-3.3q-2.88-3.32-2.88-9.61v-85.87a24.28,24.28,0,0,1,1.21-8.58,12.25,12.25,0,0,1,4.78-5.58,13.08,13.08,0,0,1,7.22-2.17,12.43,12.43,0,0,1,5.2,1,12.53,12.53,0,0,1,3.79,2.66,26.76,26.76,0,0,1,3.34,4.33Q-479.93,3367.37-478.1,3370.25Z" transform="translate(1923.19 -2570.91)"/><path class="cls-1" d="M-375.37,3358.63H-346a79,79,0,0,1,19.66,2.13,36.2,36.2,0,0,1,14.89,8q17.38,14.88,17.38,45.25a89.08,89.08,0,0,1-1.74,18.3,54.18,54.18,0,0,1-5.39,14.92,46.44,46.44,0,0,1-9.34,11.88,38.62,38.62,0,0,1-9.8,6.46,44,44,0,0,1-11.42,3.41,86.84,86.84,0,0,1-13.79,1h-29.38q-6.15,0-9.26-1.86a8.63,8.63,0,0,1-4.06-5.24,32.94,32.94,0,0,1-.95-8.77v-81.62q0-7.29,3.26-10.55T-375.37,3358.63Zm8.73,17.85V3452h17.08c3.75,0,6.68-.1,8.81-.3a27.34,27.34,0,0,0,6.6-1.52,18,18,0,0,0,5.93-3.42q11.31-9.56,11.31-33,0-16.47-5-24.67t-12.27-10.45a60.61,60.61,0,0,0-17.61-2.23Z" transform="translate(1923.19 -2570.91)"/></svg>