<svg id="Calque_1" data-name="Calque 1" xmlns="http://www.w3.org/2000/svg" viewBox="0 0 681.59 561.82"><defs><style>.cls-1{fill:#103147;}.cls-2{fill:#f68511;}</style></defs><path class="cls-1" d="M684.77,838.65H290.56a30,30,0,0,1-29-22.2L181.64,519.74a30,30,0,0,0-29-22.2H94.47a60,60,0,0,1,60-60h44.17a30,30,0,0,1,29,22.2l79.95,296.71a30,30,0,0,0,29,22.2h301a30,30,0,0,0,29.16-22.95l32.18-133a30,30,0,0,0-29.27-37.05l-176.36.64a30,30,0,0,1-30.11-29.9h0A30,30,0,0,1,493,526.29l252.9-.92a30,30,0,0,1,29.26,37.06L713.93,815.7A30,30,0,0,1,684.77,838.65Z" transform="translate(-94.47 -437.54)"/><circle class="cls-2" cx="297.28" cy="505.1" r="56.72"/><path class="cls-2" d="M263.08,225H371.21a4.15,4.15,0,0,1,4.15,4.15V341.4a0,0,0,0,1,0,0H258.94a0,0,0,0,1,0,0V229.13A4.15,4.15,0,0,1,263.08,225Z"/><path class="cls-1" d="M470.83,780H352.41V666.67a5.16,5.16,0,0,1,5.15-5.15H465.68a5.16,5.16,0,0,1,5.15,5.15Zm-116.42-2H468.83V666.67a3.15,3.15,0,0,0-3.15-3.15H357.56a3.15,3.15,0,0,0-3.15,3.15Z" transform="translate(-94.47 -437.54)"/><path class="cls-2" d="M375.36,254.09h83a4.28,4.28,0,0,1,4.28,4.28v83a0,0,0,0,1,0,0H375.36a0,0,0,0,1,0,0V254.09A0,0,0,0,1,375.36,254.09Z"/><path class="cls-1" d="M558.15,780H468.83V690.63h84.05a5.28,5.28,0,0,1,5.27,5.27Zm-87.32-2h85.32V695.9a3.28,3.28,0,0,0-3.27-3.27H470.83Z" transform="translate(-94.47 -437.54)"/><circle class="cls-2" cx="480.68" cy="505.1" r="56.72"/></svg>