<svg id="Calque_1" data-name="Calque 1" xmlns="http://www.w3.org/2000/svg" viewBox="0 0 681.59 561.82"><defs><style>.cls-1{fill:#fff;}.cls-2{fill:#f68511;}</style></defs><path class="cls-1" d="M-557.88,864.47H-952.09a30,30,0,0,1-29-22.19l-80-296.72a30,30,0,0,0-29-22.19h-58.2a60,60,0,0,1,60-60H-1044a30,30,0,0,1,29,22.19l79.95,296.72a30,30,0,0,0,29,22.19h301a30,30,0,0,0,29.16-22.94l32.17-133A30,30,0,0,0-573,611.47l-176.37.64a30,30,0,0,1-30.11-29.89h0a30,30,0,0,1,29.9-30.11l252.89-.91a30,30,0,0,1,29.27,37l-61.28,253.28A30,30,0,0,1-557.88,864.47Z" transform="translate(1148.18 -463.37)"/><circle class="cls-2" cx="297.28" cy="505.1" r="56.72"/><path class="cls-2" d="M263.08,225H371.21a4.15,4.15,0,0,1,4.15,4.15V341.4a0,0,0,0,1,0,0H258.94a0,0,0,0,1,0,0V229.13A4.15,4.15,0,0,1,263.08,225Z"/><path class="cls-1" d="M-771.81,805.77H-890.24V692.49a5.15,5.15,0,0,1,5.15-5.14H-777a5.15,5.15,0,0,1,5.15,5.14Zm-116.43-2h114.43V692.49a3.15,3.15,0,0,0-3.15-3.14H-885.09a3.15,3.15,0,0,0-3.15,3.14Z" transform="translate(1148.18 -463.37)"/><path class="cls-2" d="M375.36,254.09h83a4.28,4.28,0,0,1,4.28,4.28v83a0,0,0,0,1,0,0H375.36a0,0,0,0,1,0,0V254.09A0,0,0,0,1,375.36,254.09Z"/><path class="cls-1" d="M-684.49,805.77h-89.32V716.45h84a5.29,5.29,0,0,1,5.28,5.28Zm-87.32-2h85.32v-82a3.29,3.29,0,0,0-3.28-3.28h-82Z" transform="translate(1148.18 -463.37)"/><circle class="cls-2" cx="480.68" cy="505.1" r="56.72"/></svg>